<?xml version="1.0"?><svg xmlns="http://www.w3.org/2000/svg"  viewBox="0 0 50 50" width="50px" height="50px">    <path d="M43.915,31.443C44.607,29.418,45,27.256,45,25c0-3.643-0.995-7.051-2.704-9.996c0.111-0.11,0.2-0.242,0.251-0.395 c1.193-3.617,0.084-6.058,0.037-6.16c-0.027-0.057-0.073-0.098-0.109-0.148c-0.074-0.151-0.176-0.288-0.32-0.388 c-0.033-0.022-3.273-2.258-5.584-3.752c-0.183-0.118-0.397-0.17-0.615-0.158c-1.687,0.122-3.197,0.938-4.516,2.081 C29.415,5.392,27.255,5,25,5c-3.656,0-7.075,1.003-10.027,2.723c-0.098-0.082-0.207-0.152-0.333-0.192 C11.7,6.598,9.568,7.128,8.816,7.382C8.481,7.37,8.153,7.519,7.955,7.804c-0.022,0.032-2.259,3.274-3.753,5.584 c-0.118,0.182-0.173,0.398-0.157,0.615c0.121,1.678,0.928,3.181,2.061,4.496C5.401,20.541,5,22.722,5,25 c0,3.623,0.983,7.014,2.674,9.947c-0.096,0.103-0.175,0.222-0.221,0.36c-1.193,3.616-0.085,6.058-0.037,6.16 c0.027,0.058,0.074,0.1,0.111,0.151c0.074,0.149,0.175,0.285,0.318,0.384c0.032,0.022,3.273,2.259,5.584,3.754 c0.162,0.104,0.351,0.16,0.543,0.16c0.024,0,0.048-0.001,0.072-0.003c1.658-0.12,3.146-0.91,4.449-2.022 C20.537,44.598,22.72,45,25,45c3.645,0,7.055-0.996,10.001-2.706c0.101,0.091,0.216,0.167,0.349,0.211 c1.256,0.415,2.369,0.552,3.292,0.552c1.737,0,2.801-0.484,2.867-0.516c0.046-0.021,0.079-0.061,0.121-0.089 c0.163-0.073,0.309-0.185,0.415-0.339c0.022-0.033,2.259-3.274,3.753-5.585c0.118-0.183,0.173-0.398,0.157-0.615 C45.835,34.246,45.037,32.751,43.915,31.443z M5.872,13.974c1.512-2.319,3.246-4.711,3.246-4.711s0.305,5.013,8.197,9.19 l2.504-3.925l2.104,8.561l-8.91,2.19l1.762-2.821C11.998,21.129,6.816,18.061,5.872,13.974z M22.381,35.081 c-1.349,2.767-4.456,7.926-8.549,8.839c-2.307-1.529-4.687-3.281-4.687-3.281s5.015-0.268,9.251-8.128l-3.948-2.56l8.641-2.124 l2.244,9.128L22.381,35.081z M24.466,12.989l2.876,1.767c1.307-2.786,4.337-7.991,8.416-8.965c2.33,1.495,4.735,3.211,4.735,3.211 s-5.011,0.342-9.128,8.265l4.008,2.515l-8.711,2.141L24.466,12.989z M40.813,40.556c0,0-0.323-5.012-8.229-9.16l-2.587,4.088 l-2.169-8.822l9.117-2.241l-1.835,2.961c2.781,1.318,7.974,4.368,8.933,8.451C42.538,38.157,40.813,40.556,40.813,40.556z"/></svg>